<?xml version="1.0" encoding="UTF-8"?>
<svg xmlns="http://www.w3.org/2000/svg" role="img" aria-label="ACM policy delivery process showing GitOps source, hub sync, shared placement, separate SPO install and DaemonSet mitigation delivery branches, and combined compliance proof." width="2172" height="724" viewBox="0 0 2172 724">
  <defs>
    <filter id="shadow" x="-8%" y="-12%" width="116%" height="132%">
      <feDropShadow dx="0" dy="8" stdDeviation="10" flood-color="#000000" flood-opacity="0.12"/>
    </filter>
    <filter id="paper">
      <feTurbulence type="fractalNoise" baseFrequency="0.85" numOctaves="2" stitchTiles="stitch"/>
      <feColorMatrix type="saturate" values="0"/>
      <feComponentTransfer><feFuncA type="table" tableValues="0 0.015"/></feComponentTransfer>
    </filter>
    <marker id="arrow" markerWidth="16" markerHeight="16" refX="13" refY="8" orient="auto" markerUnits="userSpaceOnUse">
      <path d="M 2 2 L 14 8 L 2 14 Z" fill="#ee0000"/>
    </marker>
    <style>
      .canvas { fill: #f7f7f7; }
      .grain { filter: url(#paper); opacity: 0.5; }
      .panel { fill: #fafafa; stroke: #c7c7c7; stroke-width: 1.4; filter: url(#shadow); }
      .card { fill: #ffffff; stroke: #c7c7c7; stroke-width: 1.4; filter: url(#shadow); }
      .connector { fill: none; stroke: #ee0000; stroke-width: 3.1; stroke-linecap: round; stroke-linejoin: round; }
      .icon { fill: none; stroke: #ee0000; stroke-width: 4; stroke-linecap: round; stroke-linejoin: round; }
      .merge { fill: #ffffff; stroke: #ee0000; stroke-width: 3; }
      .diagramTitle { fill: #151515; font: 700 42px "Red Hat Display", "Red Hat Text", Arial, sans-serif; text-anchor: middle; letter-spacing: 0; }
      .title { fill: #151515; font: 700 27px "Red Hat Display", "Red Hat Text", Arial, sans-serif; text-anchor: middle; letter-spacing: 0; }
      .body { fill: #151515; font: 400 21px "Red Hat Display", "Red Hat Text", Arial, sans-serif; letter-spacing: 0; }
      .chip { fill: #fafafa; stroke: #ee0000; stroke-width: 2; }
      .chipText { fill: #be0000; font: 700 18px "Red Hat Display", "Red Hat Text", Arial, sans-serif; text-anchor: middle; dominant-baseline: middle; letter-spacing: 0; }
    </style>
  </defs>

  <rect class="canvas" width="2172" height="724"/>
  <rect class="grain" width="2172" height="724"/>
  <rect class="panel" x="24" y="28" width="2124" height="640" rx="22"/>

  <text class="diagramTitle" x="1086" y="100">ACM Policy Delivery Flow</text>

  <path class="connector" d="M 448 370 H 492" marker-end="url(#arrow)"/>
  <path class="connector" d="M 862 370 H 906" marker-end="url(#arrow)"/>
  <path class="connector" d="M 1306 370 H 1328"/>
  <path class="connector" d="M 1328 370 C 1350 354 1354 282 1378 242" marker-end="url(#arrow)"/>
  <path class="connector" d="M 1328 370 C 1350 386 1354 456 1378 496" marker-end="url(#arrow)"/>
  <path class="connector" d="M 1740 242 C 1760 292 1760 336 1754 370"/>
  <path class="connector" d="M 1740 496 C 1760 448 1760 404 1754 370"/>
  <path class="connector" d="M 1754 370 H 1772" marker-end="url(#arrow)"/>

  <g id="step-source">
    <rect class="card" x="70" y="260" width="360" height="220" rx="12"/>
    <g class="icon" transform="translate(112 344)">
      <path d="M 0 0 H 42 L 60 18 V 68 H 0 Z"/>
      <path d="M 42 0 V 18 H 60"/>
      <path d="M 14 29 H 38"/>
      <path d="M 14 43 H 46"/>
      <path d="M 14 57 H 34"/>
    </g>
    <text class="title" x="250" y="302">GitOps source</text>
    <text class="body" x="196" y="354">
      <tspan x="196" dy="0">policies and PolicySets</tspan>
      <tspan x="196" dy="34">placement overlay</tspan>
      <tspan x="196" dy="34">Argo CD app</tspan>
    </text>
    <rect class="chip" x="121" y="526" width="258" height="48" rx="8"/>
    <text class="chipText" x="250" y="550">source of truth</text>
  </g>

  <g id="step-hub">
    <rect class="card" x="500" y="260" width="360" height="220" rx="12"/>
    <g class="icon" transform="translate(542 346)">
      <rect x="0" y="0" width="62" height="46" rx="7"/>
      <path d="M 14 18 H 32"/>
      <path d="M 14 31 H 48"/>
      <path d="M 24 64 H 38"/>
      <path d="M 31 46 V 64"/>
    </g>
    <text class="title" x="680" y="302">Hub sync</text>
    <text class="body" x="624" y="354">
      <tspan x="624" dy="0">OpenShift GitOps</tspan>
      <tspan x="624" dy="34">acm-spo-policies</tspan>
      <tspan x="624" dy="34">ACM resources ready</tspan>
    </text>
    <rect class="chip" x="551" y="526" width="258" height="48" rx="8"/>
    <text class="chipText" x="680" y="550">hub state synced</text>
  </g>

  <g id="step-placement">
    <rect class="card" x="930" y="260" width="360" height="220" rx="12"/>
    <g class="icon" transform="translate(972 346)">
      <circle cx="31" cy="31" r="29"/>
      <path d="M 31 2 V 18"/>
      <path d="M 31 44 V 60"/>
      <path d="M 2 31 H 18"/>
      <path d="M 44 31 H 60"/>
    </g>
    <text class="title" x="1110" y="302">Placement</text>
    <text class="body" x="1054" y="354">
      <tspan x="1054" dy="0">spo=true clusters</tspan>
      <tspan x="1054" dy="34">PolicySet bindings</tspan>
      <tspan x="1054" dy="34">shared target set</tspan>
    </text>
    <rect class="chip" x="981" y="526" width="258" height="48" rx="8"/>
    <text class="chipText" x="1110" y="550">eligible clusters</text>
  </g>

  <g id="step-spo">
    <rect class="card" x="1384" y="150" width="344" height="184" rx="12"/>
    <g class="icon" transform="translate(1418 214)">
      <path d="M 32 0 L 64 13 V 38 C 64 58 51 74 32 86 C 13 74 0 58 0 38 V 13 Z"/>
    </g>
    <text class="title" x="1556" y="194">SPO install and profiles</text>
    <text class="body" x="1494" y="252">
      <tspan x="1494" dy="0">OperatorPolicy install</tspan>
      <tspan x="1494" dy="30">CRD precheck</tspan>
      <tspan x="1494" dy="30">Blastwall profiles</tspan>
    </text>
    <rect class="chip" x="1427" y="350" width="258" height="44" rx="8"/>
    <text class="chipText" x="1556" y="372">SPO ready</text>
  </g>

  <g id="step-daemonset">
    <rect class="card" x="1384" y="404" width="344" height="184" rx="12"/>
    <g class="icon" transform="translate(1422 478)">
      <rect x="0" y="0" width="66" height="46" rx="8"/>
      <path d="M 13 15 H 28"/>
      <path d="M 13 31 H 45"/>
      <path d="M 66 23 H 80"/>
      <path d="M -14 23 H 0"/>
    </g>
    <text class="title" x="1556" y="448">DaemonSet mitigation</text>
    <text class="body" x="1514" y="508">
      <tspan x="1514" dy="0">BPF LSM policy</tspan>
      <tspan x="1514" dy="30">CVE mitigation</tspan>
    </text>
    <rect class="chip" x="1427" y="604" width="258" height="44" rx="8"/>
    <text class="chipText" x="1556" y="626">mitigation delivered</text>
  </g>

  <g id="step-proof">
    <rect class="card" x="1780" y="260" width="350" height="220" rx="12"/>
    <g class="icon" transform="translate(1818 346)">
      <rect x="0" y="0" width="64" height="44" rx="7"/>
      <path d="M 13 15 H 49"/>
      <path d="M 13 29 H 36"/>
      <circle cx="50" cy="29" r="4"/>
    </g>
    <text class="title" x="1955" y="302">Compliance evidence</text>
    <text class="body" x="1904" y="354">
      <tspan x="1904" dy="0">ACM policy status</tspan>
      <tspan x="1904" dy="34">managed resources</tspan>
      <tspan x="1904" dy="34">runtime validation</tspan>
    </text>
    <rect class="chip" x="1826" y="526" width="258" height="48" rx="8"/>
    <text class="chipText" x="1955" y="550">validation required</text>
  </g>
</svg>
